<svg width="25" height="24" viewBox="0 0 25 24" fill="none" xmlns="http://www.w3.org/2000/svg">
<g clip-path="url(#clip0_101_20805)">
<path d="M21.167 4.5H3.16699C2.76917 4.5 2.38764 4.65804 2.10633 4.93934C1.82503 5.22064 1.66699 5.60218 1.66699 6V8.25C1.66699 8.64782 1.82503 9.02936 2.10633 9.31066C2.38764 9.59196 2.76917 9.75 3.16699 9.75V18C3.16699 18.3978 3.32503 18.7794 3.60633 19.0607C3.88764 19.342 4.26917 19.5 4.66699 19.5H19.667C20.0648 19.5 20.4463 19.342 20.7277 19.0607C21.009 18.7794 21.167 18.3978 21.167 18V9.75C21.5648 9.75 21.9463 9.59196 22.2277 9.31066C22.509 9.02936 22.667 8.64782 22.667 8.25V6C22.667 5.60218 22.509 5.22064 22.2277 4.93934C21.9463 4.65804 21.5648 4.5 21.167 4.5ZM14.417 13.5H9.91699C9.71808 13.5 9.52731 13.421 9.38666 13.2803C9.24601 13.1397 9.16699 12.9489 9.16699 12.75C9.16699 12.5511 9.24601 12.3603 9.38666 12.2197C9.52731 12.079 9.71808 12 9.91699 12H14.417C14.6159 12 14.8067 12.079 14.9473 12.2197C15.088 12.3603 15.167 12.5511 15.167 12.75C15.167 12.9489 15.088 13.1397 14.9473 13.2803C14.8067 13.421 14.6159 13.5 14.417 13.5ZM21.167 8.25H3.16699V6H21.167V8.25Z" fill="black"/>
</g>
<defs>
<clipPath id="clip0_101_20805">
<rect width="24" height="24" fill="white" transform="translate(0.166992)"/>
</clipPath>
</defs>
</svg>
