<svg width="24" height="24" viewBox="0 0 24 24" fill="none" xmlns="http://www.w3.org/2000/svg">
<path d="M19.5 0H1.5C1.10218 0 0.720644 0.158035 0.43934 0.43934C0.158035 0.720644 0 1.10218 0 1.5V3.75C0 4.14782 0.158035 4.52936 0.43934 4.81066C0.720644 5.09196 1.10218 5.25 1.5 5.25V13.5C1.5 13.8978 1.65804 14.2794 1.93934 14.5607C2.22064 14.842 2.60218 15 3 15H18C18.3978 15 18.7794 14.842 19.0607 14.5607C19.342 14.2794 19.5 13.8978 19.5 13.5V5.25C19.8978 5.25 20.2794 5.09196 20.5607 4.81066C20.842 4.52936 21 4.14782 21 3.75V1.5C21 1.10218 20.842 0.720644 20.5607 0.43934C20.2794 0.158035 19.8978 0 19.5 0ZM12.75 9H8.25C8.05109 9 7.86032 8.92098 7.71967 8.78033C7.57902 8.63968 7.5 8.44891 7.5 8.25C7.5 8.05109 7.57902 7.86032 7.71967 7.71967C7.86032 7.57902 8.05109 7.5 8.25 7.5H12.75C12.9489 7.5 13.1397 7.57902 13.2803 7.71967C13.421 7.86032 13.5 8.05109 13.5 8.25C13.5 8.44891 13.421 8.63968 13.2803 8.78033C13.1397 8.92098 12.9489 9 12.75 9ZM19.5 3.75H1.5V1.5H19.5V3.75Z" fill="black"/>
</svg>
