<svg width="24" height="24" viewBox="0 0 24 24" fill="none" xmlns="http://www.w3.org/2000/svg">
<path d="M16.5664 9.18446C16.5698 9.06063 16.5698 8.93679 16.5664 8.81296L17.8494 7.20999C17.9167 7.12583 17.9633 7.02704 17.9854 6.92159C18.0075 6.81613 18.0045 6.70696 17.9767 6.60286C17.766 5.81234 17.4514 5.05326 17.0411 4.34547C16.9873 4.25287 16.9126 4.17409 16.8231 4.11542C16.7335 4.05675 16.6315 4.0198 16.5251 4.0075L14.4853 3.78048C14.4004 3.69104 14.3144 3.60504 14.2273 3.52249L13.9865 1.4775C13.9741 1.37105 13.937 1.26896 13.8782 1.17938C13.8194 1.0898 13.7404 1.0152 13.6477 0.961528C12.9399 0.551541 12.1808 0.237483 11.3903 0.0276117C11.2862 -0.000199225 11.177 -0.00317108 11.0715 0.0189357C10.9661 0.0410424 10.8673 0.0876096 10.7831 0.154886L9.18446 1.43107C9.06063 1.43107 8.93679 1.43107 8.81296 1.43107L7.20999 0.150586C7.12583 0.0833099 7.02704 0.0367427 6.92159 0.0146359C6.81613 -0.00747081 6.70696 -0.00449912 6.60286 0.0233118C5.81234 0.234025 5.05326 0.548647 4.34547 0.958948C4.25287 1.01272 4.17409 1.08736 4.11542 1.17694C4.05675 1.26651 4.0198 1.36855 4.0075 1.47492L3.78048 3.51819C3.69104 3.60361 3.60504 3.68961 3.52249 3.77618L1.4775 4.01094C1.37105 4.02333 1.26896 4.06041 1.17938 4.11924C1.0898 4.17806 1.0152 4.25701 0.961528 4.34977C0.551625 5.05766 0.237299 5.81672 0.0267518 6.60716C-0.000941599 6.71133 -0.00377406 6.82054 0.0184826 6.92599C0.0407393 7.03145 0.0874624 7.13021 0.154886 7.21429L1.43107 8.81296C1.43107 8.93679 1.43107 9.06063 1.43107 9.18446L0.150586 10.7874C0.0833099 10.8716 0.0367427 10.9704 0.0146359 11.0758C-0.00747081 11.1813 -0.00449912 11.2905 0.0233118 11.3946C0.234025 12.1851 0.548647 12.9442 0.958948 13.652C1.01272 13.7446 1.08736 13.8233 1.17694 13.882C1.26651 13.9407 1.36855 13.9776 1.47492 13.9899L3.51475 14.2169C3.60017 14.3064 3.68617 14.3924 3.77274 14.4749L4.01094 16.5199C4.02333 16.6264 4.06041 16.7285 4.11924 16.818C4.17806 16.9076 4.25701 16.9822 4.34977 17.0359C5.05766 17.4458 5.81672 17.7601 6.60716 17.9707C6.71133 17.9984 6.82054 18.0012 6.92599 17.9789C7.03145 17.9567 7.13021 17.91 7.21429 17.8425L8.81296 16.5664C8.93679 16.5698 9.06063 16.5698 9.18446 16.5664L10.7874 17.8494C10.8716 17.9167 10.9704 17.9633 11.0758 17.9854C11.1813 18.0075 11.2905 18.0045 11.3946 17.9767C12.1852 17.7664 12.9443 17.4517 13.652 17.0411C13.7446 16.9873 13.8233 16.9126 13.882 16.8231C13.9407 16.7335 13.9776 16.6315 13.9899 16.5251L14.2169 14.4853C14.3064 14.4004 14.3924 14.3144 14.4749 14.2273L16.5199 13.9865C16.6264 13.9741 16.7285 13.937 16.818 13.8782C16.9076 13.8194 16.9822 13.7404 17.0359 13.6477C17.4458 12.9398 17.7601 12.1807 17.9707 11.3903C17.9984 11.2861 18.0012 11.1769 17.9789 11.0714C17.9567 10.966 17.91 10.8672 17.8425 10.7831L16.5664 9.18446ZM8.99871 12.4385C8.31837 12.4385 7.65332 12.2368 7.08764 11.8588C6.52196 11.4809 6.08107 10.9436 5.82071 10.3151C5.56036 9.68653 5.49224 8.9949 5.62497 8.32763C5.75769 7.66037 6.08531 7.04745 6.56638 6.56638C7.04745 6.08531 7.66037 5.75769 8.32763 5.62497C8.9949 5.49224 9.68653 5.56036 10.3151 5.82071C10.9436 6.08107 11.4809 6.52196 11.8588 7.08764C12.2368 7.65332 12.4385 8.31837 12.4385 8.99871C12.4385 9.91101 12.0761 10.7859 11.431 11.431C10.7859 12.0761 9.91101 12.4385 8.99871 12.4385Z" fill="black"/>
</svg>
